<?xml version="1.0" encoding="UTF-8"?>
<!DOCTYPE svg PUBLIC "-//W3C//DTD SVG 1.1//EN" "http://www.w3.org/Graphics/SVG/1.1/DTD/svg11.dtd">
<svg xmlns="http://www.w3.org/2000/svg" version="1.1" width="512px" height="512px" style="shape-rendering:geometricPrecision; text-rendering:geometricPrecision; image-rendering:optimizeQuality; fill-rule:evenodd; clip-rule:evenodd" xmlns:xlink="http://www.w3.org/1999/xlink">
<g><path style="opacity:0.996" fill="#000000" d="M 21.5,-0.5 C 148.167,-0.5 274.833,-0.5 401.5,-0.5C 412.483,2.98437 419.65,10.3177 423,21.5C 423.667,61.8333 423.667,102.167 423,142.5C 421.189,146.655 418.023,148.655 413.5,148.5C 408.3,147.803 405.133,144.803 404,139.5C 403.667,101.5 403.333,63.5 403,25.5C 401.167,23.6667 399.333,21.8333 397.5,20C 273.5,19.3333 149.5,19.3333 25.5,20C 23.6667,21.8333 21.8333,23.6667 20,25.5C 19.3333,178.833 19.3333,332.167 20,485.5C 21.8333,487.333 23.6667,489.167 25.5,491C 149.5,491.667 273.5,491.667 397.5,491C 399.333,489.167 401.167,487.333 403,485.5C 403.333,458.5 403.667,431.5 404,404.5C 406.086,400.555 409.253,398.221 413.5,397.5C 418.023,397.345 421.189,399.345 423,403.5C 423.667,432.167 423.667,460.833 423,489.5C 419.65,500.682 412.483,508.016 401.5,511.5C 274.833,511.5 148.167,511.5 21.5,511.5C 16.935,509.546 12.6017,507.046 8.5,504C 4.58492,499.657 1.58492,494.823 -0.5,489.5C -0.5,333.5 -0.5,177.5 -0.5,21.5C 1.4539,16.935 3.9539,12.6017 7,8.5C 11.3435,4.58492 16.1768,1.58492 21.5,-0.5 Z"/></g>
<g><path style="opacity:1" fill="#fefefe" d="M 413.5,148.5 C 413.5,158.167 413.5,167.833 413.5,177.5C 378.699,239.825 343.199,301.825 307,363.5C 303.36,390.756 300.194,418.089 297.5,445.5C 297.316,454.484 301.649,458.317 310.5,457C 333.934,440.199 357.101,423.032 380,405.5C 390.941,385.94 402.108,366.607 413.5,347.5C 413.5,364.167 413.5,380.833 413.5,397.5C 409.253,398.221 406.086,400.555 404,404.5C 403.667,431.5 403.333,458.5 403,485.5C 401.167,487.333 399.333,489.167 397.5,491C 273.5,491.667 149.5,491.667 25.5,491C 23.6667,489.167 21.8333,487.333 20,485.5C 19.3333,332.167 19.3333,178.833 20,25.5C 21.8333,23.6667 23.6667,21.8333 25.5,20C 149.5,19.3333 273.5,19.3333 397.5,20C 399.333,21.8333 401.167,23.6667 403,25.5C 403.333,63.5 403.667,101.5 404,139.5C 405.133,144.803 408.3,147.803 413.5,148.5 Z"/></g>
<g><path style="opacity:1" fill="#030202" d="M 199.5,53.5 C 247.394,51.6103 280.561,72.6103 299,116.5C 310.432,161.455 297.265,197.288 259.5,224C 214.359,247.217 174.526,240.384 140,203.5C 112.882,164.766 112.882,126.099 140,87.5C 155.969,69.2696 175.802,57.9363 199.5,53.5 Z"/></g>
<g><path style="opacity:1" fill="#fb6461" d="M 201.5,73.5 C 242.763,71.6181 269.597,90.2848 282,129.5C 285.717,150.622 281.55,169.955 269.5,187.5C 265.043,182.541 260.376,177.708 255.5,173C 250.642,169.408 245.642,166.075 240.5,163C 248.116,149.944 249.616,136.11 245,121.5C 236.149,104.157 221.982,96.9903 202.5,100C 184.57,106.271 175.57,118.938 175.5,138C 175.352,147.08 177.685,155.413 182.5,163C 177.358,166.075 172.358,169.408 167.5,173C 162.624,177.708 157.957,182.541 153.5,187.5C 134.353,158.157 134.853,129.157 155,100.5C 167.356,85.911 182.856,76.911 201.5,73.5 Z"/></g>
<g><path style="opacity:1" fill="#fbc9a9" d="M 205.5,119.5 C 215.805,117.414 222.972,121.081 227,130.5C 227.861,136.585 227.527,142.585 226,148.5C 220.134,157.564 212.3,159.731 202.5,155C 199.131,152.635 196.964,149.468 196,145.5C 192.819,134.244 195.986,125.577 205.5,119.5 Z"/></g>
<g><path style="opacity:0.987" fill="#020201" d="M 511.5,157.5 C 511.5,163.167 511.5,168.833 511.5,174.5C 510.013,179.166 508.18,183.832 506,188.5C 475.14,241.563 444.307,294.563 413.5,347.5C 402.108,366.607 390.941,385.94 380,405.5C 357.101,423.032 333.934,440.199 310.5,457C 301.649,458.317 297.316,454.484 297.5,445.5C 300.194,418.089 303.36,390.756 307,363.5C 343.199,301.825 378.699,239.825 413.5,177.5C 421.308,164.564 429.141,151.564 437,138.5C 452.6,123.094 470.433,119.927 490.5,129C 501.294,135.775 508.294,145.275 511.5,157.5 Z"/></g>
<g><path style="opacity:1" fill="#fa6461" d="M 463.5,144.5 C 484.641,143.801 493.474,153.801 490,174.5C 486.716,181.429 482.716,187.762 478,193.5C 465.435,186.467 452.935,179.3 440.5,172C 444.333,165.5 448.167,159 452,152.5C 455.482,149.161 459.315,146.494 463.5,144.5 Z"/></g>
<g><path style="opacity:1" fill="#a3dafc" d="M 203.5,177.5 C 222.596,175.916 238.429,182.249 251,196.5C 252.874,198.569 253.874,200.902 254,203.5C 228.716,220.229 202.549,221.729 175.5,208C 172.999,206.327 170.666,204.493 168.5,202.5C 176.598,189.055 188.264,180.721 203.5,177.5 Z"/></g>
<g><path style="opacity:1" fill="#fdba52" d="M 430.5,189.5 C 443.304,196.737 455.971,204.237 468.5,212C 434.96,270.248 401.293,328.415 367.5,386.5C 354.668,379.252 342.002,371.752 329.5,364C 363.557,306.051 397.224,247.885 430.5,189.5 Z"/></g>
<g><path style="opacity:1" fill="#000000" d="M 121.5,269.5 C 169.834,269.333 218.168,269.5 266.5,270C 274.299,272.055 276.799,276.888 274,284.5C 272.238,287.268 269.738,288.768 266.5,289C 218.167,289.667 169.833,289.667 121.5,289C 114.504,286.347 112.337,281.514 115,274.5C 116.805,272.174 118.972,270.508 121.5,269.5 Z"/></g>
<g><path style="opacity:1" fill="#0a0a0a" d="M 77.5,269.5 C 87.4623,269.124 91.629,273.791 90,283.5C 84.9831,290.307 79.3164,290.974 73,285.5C 69.4879,278.835 70.9879,273.502 77.5,269.5 Z"/></g>
<g><path style="opacity:1" fill="#000000" d="M 121.5,325.5 C 169.834,325.333 218.168,325.5 266.5,326C 274.299,328.055 276.799,332.888 274,340.5C 272.238,343.268 269.738,344.768 266.5,345C 218.167,345.667 169.833,345.667 121.5,345C 114.504,342.347 112.337,337.514 115,330.5C 116.805,328.174 118.972,326.508 121.5,325.5 Z"/></g>
<g><path style="opacity:1" fill="#0a0a0a" d="M 77.5,325.5 C 87.4623,325.124 91.629,329.791 90,339.5C 84.9831,346.307 79.3164,346.974 73,341.5C 69.4879,334.835 70.9879,329.502 77.5,325.5 Z"/></g>
<g><path style="opacity:1" fill="#000000" d="M 121.5,381.5 C 169.834,381.333 218.168,381.5 266.5,382C 274.299,384.055 276.799,388.888 274,396.5C 272.238,399.268 269.738,400.768 266.5,401C 218.167,401.667 169.833,401.667 121.5,401C 114.504,398.347 112.337,393.514 115,386.5C 116.805,384.174 118.972,382.508 121.5,381.5 Z"/></g>
<g><path style="opacity:1" fill="#0a0a0a" d="M 77.5,381.5 C 87.4623,381.124 91.629,385.791 90,395.5C 84.9831,402.307 79.3164,402.974 73,397.5C 69.4879,390.835 70.9879,385.502 77.5,381.5 Z"/></g>
<g><path style="opacity:1" fill="#96d2f8" d="M 321.5,424.5 C 320.539,422.735 320.205,420.735 320.5,418.5C 321.321,407.108 322.655,395.775 324.5,384.5C 333.869,390.181 343.203,395.848 352.5,401.5C 342.315,409.42 331.982,417.086 321.5,424.5 Z"/></g>
<g><path style="opacity:1" fill="#54768c" d="M 320.5,418.5 C 320.205,420.735 320.539,422.735 321.5,424.5C 321.44,425.043 321.107,425.376 320.5,425.5C 319.203,423.027 319.203,420.693 320.5,418.5 Z"/></g>
<g><path style="opacity:1" fill="#010101" d="M 209.5,437.5 C 228.503,437.333 247.503,437.5 266.5,438C 274.299,440.055 276.799,444.888 274,452.5C 272.238,455.268 269.738,456.768 266.5,457C 247.5,457.667 228.5,457.667 209.5,457C 202.504,454.347 200.337,449.514 203,442.5C 204.805,440.174 206.972,438.508 209.5,437.5 Z"/></g>
</svg>
